HIERARCHY
ROOT Hips
{
  OFFSET -5.58815 102.545 -76.5957
  CHANNELS 6 Xposition Yposition Zposition Zrotation Xrotation Yrotation
  JOINT RightUpLeg
  {
    OFFSET -8.9458 -8.66707 0.101652
    CHANNELS 3 Zrotation Xrotation Yrotation
    JOINT RightLeg
    {
      OFFSET 0 -44.4227 1.3727
      CHANNELS 3 Zrotation Xrotation Yrotation
      JOINT RightFoot
      {
        OFFSET 0.253549 -42.0924 -1.46059
        CHANNELS 3 Zrotation Xrotation Yrotation
        JOINT RightToes
        {
          OFFSET 0.04 -4.41509 8.4991
          CHANNELS 3 Zrotation Xrotation Yrotation
          End Site
          {
            OFFSET -0.08 -0.137448 9.77979
          }
        }
      }
    }
  }
  JOINT Spine
  {
    OFFSET 0 11.8905 0
    CHANNELS 3 Zrotation Xrotation Yrotation
    JOINT Spine1
    {
      OFFSET 0 25.6574 0.127663
      CHANNELS 3 Zrotation Xrotation Yrotation
      JOINT HEad
      {
        OFFSET 0 8.73416 0.011341
        CHANNELS 3 Zrotation Xrotation Yrotation
        End Site
        {
          OFFSET -0.29 12.7742 2.51395
        }
      }
      JOINT LeftShoulder1
      {
        OFFSET 8.99 -0.362252 -0.22
        CHANNELS 3 Zrotation Xrotation Yrotation
        JOINT LeftArm
        {
          OFFSET 10.2827 -0.00338 0.322123
          CHANNELS 3 Zrotation Xrotation Yrotation
          JOINT LeftForeArm
          {
            OFFSET 32.7669 0.099144 -1.42434
            CHANNELS 3 Zrotation Xrotation Yrotation
            JOINT LeftHand
            {
              OFFSET 27.5643 0.085362 1.02216
              CHANNELS 3 Zrotation Xrotation Yrotation
              End Site
              {
                OFFSET 16.7443 -0.6 1.50291
              }
            }
          }
        }
      }
      JOINT RightShoulder
      {
        OFFSET -8.99 -0.362252 -0.22
        CHANNELS 3 Zrotation Xrotation Yrotation
        JOINT RightArm
        {
          OFFSET -10.2827 -0.00338 0.322123
          CHANNELS 3 Zrotation Xrotation Yrotation
          JOINT RightForeArm
          {
            OFFSET -32.8971 0.099144 -1.42434
            CHANNELS 3 Zrotation Xrotation Yrotation
            JOINT RightHand
            {
              OFFSET -27.4921 0.085362 1.02216
              CHANNELS 3 Zrotation Xrotation Yrotation
              End Site
              {
                OFFSET -16.6312 -0.6 1.50291
              }
            }
          }
        }
      }
    }
  }
  JOINT LeftUpLeg
  {
    OFFSET 8.9458 -8.66707 0.101652
    CHANNELS 3 Zrotation Xrotation Yrotation
    JOINT LeftLeg
    {
      OFFSET 0 -44.4227 1.3727
      CHANNELS 3 Zrotation Xrotation Yrotation
      JOINT LeftFoot
      {
        OFFSET -0.253549 -42.0924 -1.46059
        CHANNELS 3 Zrotation Xrotation Yrotation
        JOINT LeftToes
        {
          OFFSET -0.04 -4.41509 8.4991
          CHANNELS 3 Zrotation Xrotation Yrotation
          End Site
          {
            OFFSET 0.08 -0.047448 9.77979
          }
        }
      }
    }
  }
}
MOTION
Frames:	10
Frame Time:	0.0166667
-5.58815 102.545 -76.5957 -1.31518 0.0653905 -0.705797 1.42537 -22.0818 -0.301592 8.16527 20.0092 -20.0902 0.350825 -9.65687 -0.208245 0.0462048 0.000533964 0.662642 1.2031 2.25179 1.49098 7.84531 -6.15577 0.456783 -5.73283 2.4315 1.45159 1.90088e-015 -7.95139e-016 -0 -84.6079 -17.6182 -11.9392 -27.0364 8.52499 8.80665 0.368473 9.90896 -0.00117925 -3.49038 0.261191 1.34162 78.6779 -30.2094 1.84555 20.6144 13.4441 10.031 -0.369625 9.91382 0.00119886 1.90822 2.89416 0.119518 -6.47164 38.121 16.6532 -16.7067 -5.19375 -0.134744 -2.2566e-012 3.30778e-012 -6.24661e-012 
-6.08845 102.725 -75.107 -1.64221 -0.336549 -0.379459 1.88957 -20.6562 0.291779 8.6483 20.0976 -20.918 0.618849 -11.1063 -0.192601 -0.203979 0.260144 0.520793 1.42433 2.29939 1.47442 7.98114 -5.50621 0.402613 -5.37836 2.27752 1.20989 -1.66482e-015 -3.97569e-016 1.98785e-016 -83.9249 -17.5531 -11.2653 -26.8644 8.78677 7.89827 0.368473 9.90896 -0.00117925 -3.16836 0.231658 0.607012 79.1756 -29.3198 3.16663 20.727 13.353 9.59307 -0.369625 9.91382 0.00119886 3.24869 0.930606 0.234593 -6.96994 42.3733 16.7434 -16.758 -1.3343 0.434025 -2.25819e-012 3.29187e-012 -6.24343e-012 
-6.5604 102.867 -73.665 -1.9299 -0.647362 -0.00558479 2.24711 -19.4203 0.657554 9.11286 20.3137 -21.6077 0.885921 -12.5524 -0.173396 -0.409671 0.474917 0.40369 1.67686 2.33796 1.44791 8.09005 -4.95404 0.355625 -5.05675 2.12429 0.933544 1.61513e-015 3.97569e-016 1.98785e-016 -83.3023 -17.4276 -10.7678 -26.7309 8.99534 7.16113 0.368473 9.90896 -0.00117925 -2.86285 0.207822 -0.00412266 79.5275 -28.4805 4.27585 20.8781 13.3106 9.41823 -0.369625 9.91382 0.00119886 4.38343 -1.23889 0.38486 -7.14919 46.6808 16.6742 -16.8171 2.20115 0.950299 -2.25501e-012 3.30142e-012 -6.24661e-012 
-6.96737 102.9 -72.347 -2.13497 -0.712488 0.541636 2.4033 -18.7148 0.399594 9.52242 20.9261 -21.9483 1.17126 -14.0279 -0.142233 -0.455579 0.563745 0.375272 2.0347 2.35848 1.38197 8.08808 -4.67517 0.327478 -4.77778 1.9873 0.528762 1.61513e-016 -3.97569e-016 3.97569e-016 -82.801 -17.1296 -10.7574 -26.6935 9.06429 6.90986 0.368473 9.90896 -0.00117925 -2.52666 0.198651 -0.326148 79.5426 -27.7755 4.83566 21.1672 13.3991 9.9664 -0.369625 9.91382 0.00119886 4.96345 -4.02592 0.73607 -6.06297 51.2766 15.5213 -16.8165 5.28145 1.3941 -2.25819e-012 3.30142e-012 -6.23707e-012 
-7.30598 102.889 -71.1084 -2.25874 -0.630846 1.07489 2.42896 -18.2854 -0.129766 9.89989 21.6718 -22.0262 1.41202 -15.4211 -0.109613 -0.517469 0.590542 0.342674 2.40098 2.35187 1.32524 8.11215 -4.53155 0.310892 -4.64004 1.82321 0.138164 1.57785e-015 0 7.95139e-016 -82.4643 -16.7723 -11.0045 -26.7845 9.04685 6.89241 0.368473 9.90896 -0.00117925 -2.36278 0.200319 -0.36206 79.4757 -27.2218 5.14001 21.4506 13.5659 10.9096 -0.369625 9.91382 0.00119886 5.22541 -7.0189 0.937299 -4.55437 55.6683 14.5127 -16.5765 7.00487 1.62625 -2.26137e-012 3.28869e-012 -6.24184e-012 
-7.54438 102.881 -69.9387 -2.25849 -0.396939 1.43498 2.2806 -18.0448 -0.822215 10.2415 22.3723 -21.7293 1.53975 -16.6097 -0.0830315 -0.701341 0.614883 0.249081 2.6781 2.29569 1.33257 8.31539 -4.49778 0.308591 -4.80665 1.58239 -0.134597 1.72694e-015 0 3.97569e-016 -82.4029 -16.4187 -11.421 -27.0934 8.93769 7.03518 0.368473 9.90896 -0.00117925 -2.66633 0.212918 -0.0108435 79.4949 -26.8742 5.28471 21.619 13.8057 12.1729 -0.369625 9.91382 0.00119886 5.14984 -9.99064 0.563132 -4.18106 59.4348 15.6943 -15.7175 5.89925 1.39732 -2.25819e-012 3.3046e-012 -6.23866e-012 
-7.73141 102.862 -68.8129 -2.21548 -0.169872 1.66343 2.12372 -17.8318 -1.36945 10.5596 23.0431 -21.4186 1.58598 -17.6584 -0.064127 -1.09887 0.568691 0.0502786 2.94223 2.22089 1.35584 8.56718 -4.41184 0.302485 -5.09173 1.29966 -0.266489 -3.31722e-015 -3.97569e-016 -3.97569e-016 -82.4799 -16.1017 -11.8931 -27.491 8.824 7.11527 0.368473 9.90896 -0.00117925 -3.11571 0.233557 0.581107 79.6113 -26.6833 5.49698 21.6591 14.0523 13.4595 -0.369625 9.91382 0.00119886 4.86394 -12.8029 -0.0328354 -4.52596 62.5 17.7341 -14.7847 3.5473 0.998634 -2.25183e-012 3.29187e-012 -6.24025e-012 
-7.90059 102.829 -67.7095 -2.19003 -0.127513 1.70705 2.11455 -17.461 -1.29399 10.9406 23.6448 -21.5237 1.53462 -18.5874 -0.0606335 -1.96581 0.416927 -0.380202 3.24677 2.15106 1.36148 8.78365 -4.05091 0.270397 -5.36163 0.938984 -0.142014 3.6154e-015 -1.98785e-016 7.95139e-016 -82.6075 -15.9304 -12.277 -27.8716 8.80248 6.84176 0.368473 9.90896 -0.00117925 -3.46246 0.264108 1.3901 79.8851 -26.6567 6.05414 21.5116 14.2555 14.4587 -0.369625 9.91382 0.00119886 4.58195 -15.2272 -0.568796 -4.74224 64.7238 19.1529 -14.2573 1.00524 0.645411 -2.25501e-012 3.31096e-012 -6.23548e-012 
-8.06607 102.795 -66.6074 -2.18803 -0.207633 1.69068 2.23181 -16.9302 -0.996768 11.2325 24.1459 -21.7511 1.45929 -19.4079 -0.0621592 -2.92396 0.120031 -0.852365 3.56198 2.08588 1.36073 8.9793 -3.57202 0.227471 -5.61361 0.663125 0.0648897 1.26725e-015 0 -0 -82.7703 -15.7392 -12.5805 -28.2601 8.83832 6.3457 0.368473 9.90896 -0.00117925 -3.78256 0.290318 2.14904 80.3154 -26.6683 6.89227 21.2547 14.3987 15.1267 -0.369625 9.91382 0.00119886 4.26352 -17.3045 -1.22961 -5.03855 66.1036 20.186 -13.9377 -1.61779 0.309303 -2.26137e-012 3.30142e-012 -6.24025e-012 
-8.26792 102.766 -65.4656 -2.26525 -0.449215 1.7622 2.56661 -16.1104 -0.723275 11.2549 24.4878 -21.945 1.46 -20.1168 -0.057006 -3.37548 -0.425707 -1.05707 3.8955 2.03905 1.34798 9.14313 -3.0155 0.177353 -5.79612 0.651328 0.175197 -2.11209e-016 -2.98177e-016 -7.95139e-016 -82.888 -15.3163 -12.7481 -28.6713 8.92894 5.63634 0.368473 9.90896 -0.00117925 -4.05281 0.294327 2.49182 80.9204 -26.5831 8.07225 20.9468 14.4412 15.2857 -0.369625 9.91382 0.00119886 3.94866 -18.94 -2.15852 -5.36537 66.5719 20.3772 -13.7874 -3.85857 0.03407 -2.25978e-012 3.30142e-012 -6.23707e-012 
